<svg width="256" height="256" viewBox="0 0 256 256" fill="none" xmlns="http://www.w3.org/2000/svg">
  <defs>
    <linearGradient id="greenGrad" x1="20" y1="30" x2="160" y2="150" gradientUnits="userSpaceOnUse">
      <stop stop-color="#84cc16"/>
      <stop offset="1" stop-color="#16a34a"/>
    </linearGradient>
    <linearGradient id="blueGrad" x1="90" y1="70" x2="230" y2="200" gradientUnits="userSpaceOnUse">
      <stop stop-color="#3b82f6"/>
      <stop offset="1" stop-color="#0284c7"/>
    </linearGradient>
  </defs>

  <!-- Green Bubble -->
  <path d="M 160 90 C 160 56 128 30 90 30 C 51 30 20 56 20 90 C 20 106 28 120 40 130 C 35 142 25 152 18 155 C 38 153 54 144 63 134 C 71 137 80 138 90 138 C 128 138 160 113 160 90 Z" fill="url(#greenGrad)" />
  
  <!-- Green Bubble Dots -->
  <circle cx="60" cy="90" r="8" fill="white" />
  <circle cx="90" cy="90" r="8" fill="white" />
  <circle cx="120" cy="90" r="8" fill="white" />

  <!-- Blue Bubble -->
  <path d="M 230 140 C 230 106 198 80 160 80 C 121 80 90 106 90 140 C 90 173 121 200 160 200 C 170 200 179 199 187 196 C 196 206 212 215 232 217 C 225 214 215 204 210 192 C 222 182 230 168 230 140 Z" fill="url(#blueGrad)" stroke="white" stroke-width="8" stroke-linejoin="round" />

  <!-- Blue Bubble Smiley Face -->
  <circle cx="135" cy="130" r="8" fill="white" />
  <circle cx="185" cy="130" r="8" fill="white" />
  <path d="M 140 155 C 140 155 150 170 160 170 C 170 170 180 155 180 155" stroke="white" stroke-width="10" stroke-linecap="round" fill="none" />
</svg>